<svg width="128" height="128" viewBox="0 0 128 128" fill="none" xmlns="http://www.w3.org/2000/svg">
  <defs>
    <linearGradient id="bg" x1="14" y1="12" x2="118" y2="122" gradientUnits="userSpaceOnUse">
      <stop stop-color="#111827"/>
      <stop offset="0.48" stop-color="#26306F"/>
      <stop offset="1" stop-color="#7C3AED"/>
    </linearGradient>
    <radialGradient id="glow" cx="0" cy="0" r="1" gradientUnits="userSpaceOnUse" gradientTransform="translate(86 32) rotate(126) scale(92)">
      <stop stop-color="#22D3EE" stop-opacity="0.95"/>
      <stop offset="0.42" stop-color="#8B5CF6" stop-opacity="0.45"/>
      <stop offset="1" stop-color="#0F172A" stop-opacity="0"/>
    </radialGradient>
    <linearGradient id="ring" x1="28" y1="28" x2="104" y2="104" gradientUnits="userSpaceOnUse">
      <stop stop-color="#67E8F9"/>
      <stop offset="0.5" stop-color="#A78BFA"/>
      <stop offset="1" stop-color="#F0ABFC"/>
    </linearGradient>
    <filter id="softShadow" x="-20" y="-20" width="168" height="168" filterUnits="userSpaceOnUse" color-interpolation-filters="sRGB">
      <feDropShadow dx="0" dy="8" stdDeviation="8" flood-color="#020617" flood-opacity="0.45"/>
    </filter>
  </defs>

  <rect x="6" y="6" width="116" height="116" rx="26" fill="url(#bg)"/>
  <rect x="6" y="6" width="116" height="116" rx="26" fill="url(#glow)"/>
  <path d="M24 97C42 112 88 113 104 79C117 51 94 22 63 21C40 20 24 34 20 52" stroke="#38BDF8" stroke-opacity="0.2" stroke-width="8" stroke-linecap="round"/>

  <g filter="url(#softShadow)">
    <path d="M37 74C45 95 75 102 93 84C111 66 102 38 79 33" stroke="url(#ring)" stroke-width="8" stroke-linecap="round"/>
    <path d="M90 38C72 25 43 32 36 55C28 79 50 99 74 94" stroke="url(#ring)" stroke-width="8" stroke-linecap="round" stroke-opacity="0.92"/>
    <path d="M36 54C56 47 83 55 93 78" stroke="url(#ring)" stroke-width="8" stroke-linecap="round" stroke-opacity="0.92"/>
  </g>

  <circle cx="36" cy="55" r="9" fill="#F8FAFC"/>
  <circle cx="79" cy="33" r="8" fill="#F8FAFC"/>
  <circle cx="94" cy="82" r="9" fill="#F8FAFC"/>
  <circle cx="36" cy="55" r="4" fill="#0891B2"/>
  <circle cx="79" cy="33" r="3.5" fill="#7C3AED"/>
  <circle cx="94" cy="82" r="4" fill="#A21CAF"/>

  <circle cx="64" cy="64" r="20" fill="#0F172A" fill-opacity="0.86"/>
  <circle cx="64" cy="64" r="16" stroke="#E0F2FE" stroke-width="5"/>
  <path d="M78 78L91 91" stroke="#E0F2FE" stroke-width="7" stroke-linecap="round"/>
  <path d="M55 59H73" stroke="#22D3EE" stroke-width="3" stroke-linecap="round"/>
  <path d="M55 65H68" stroke="#A78BFA" stroke-width="3" stroke-linecap="round"/>
  <path d="M55 71H76" stroke="#A7F3D0" stroke-width="3" stroke-linecap="round"/>
  <path d="M51 64L47 68L51 72" stroke="#E0F2FE" stroke-width="3" stroke-linecap="round" stroke-linejoin="round" opacity="0.9"/>
  <path d="M77 64L81 68L77 72" stroke="#E0F2FE" stroke-width="3" stroke-linecap="round" stroke-linejoin="round" opacity="0.9"/>

  <rect x="6.8" y="6.8" width="114.4" height="114.4" rx="25.2" stroke="#FFFFFF" stroke-opacity="0.14" stroke-width="1.6"/>
</svg>
